<svg xmlns="http://www.w3.org/2000/svg" width="100" height="100" enable-background="new 0 0 200 200" viewBox="0 0 200 200">
    <path fill="#fff" d="M160.8 92.8c.1-.1.1-.2.1-.3.1-.1.1-.2.2-.4 0-.1.1-.2.1-.3 0-.1.1-.2.1-.3.1-.5.1-.9 0-1.4 0-.1-.1-.2-.1-.3 0-.1-.1-.2-.1-.3-.1-.1-.1-.2-.2-.4 0-.1-.1-.2-.1-.2-.1-.2-.3-.4-.4-.5l-18.9-18.9c-1.4-1.4-3.6-1.4-5 0s-1.4 3.6 0 5l12.9 12.9h-42.3c-1.9 0-3.5 1.6-3.5 3.5s1.6 3.5 3.5 3.5h42.2l-12.9 12.9c-1.4 1.4-1.4 3.6 0 5 .7.7 1.6 1 2.5 1s1.8-.3 2.5-1l18.9-18.9c.3-.2.4-.4.5-.6z"/>
    <path fill="#fff" d="M120.5 17.5v62.7h-7V21H63l32.7 11.5c1.4.5 2.4 1.8 2.4 3.3v146.6c0 1.2-.5 2.2-1.5 2.9-.6.4-1.3.6-2 .6-.4 0-.8-.1-1.2-.2l-52.3-18.2H41c-.1 0-.2-.1-.2-.1-.1-.1-.2-.1-.4-.2-.1 0-.1-.1-.2-.1-.1-.1-.3-.2-.4-.3l-.1-.1c-.1-.2-.3-.3-.4-.5l-.1-.1c-.1-.1-.2-.3-.2-.4 0-.1-.1-.1-.1-.2-.1-.1-.1-.3-.1-.4v-.2c0-.2-.1-.4-.1-.6V17.5c0-.3 0-.5.1-.8 0-.1 0-.1.1-.2.1-.2.1-.4.2-.5 0-.1.1-.2.1-.2.1-.2.2-.3.3-.4l.2-.2c.1-.2.3-.3.4-.4l.1-.1c.2-.1.4-.3.7-.4.1 0 .1 0 .2-.1.2-.1.4-.1.5-.1h75.3c2.1-.1 3.6 1.5 3.6 3.4z"/>
    <path fill="#fff" d="M120.5 101.4v62.7c0 2-1.6 3.5-3.5 3.5h-12v-7h8.5v-59.2h7z"/>
</svg>
