<svg xmlns="http://www.w3.org/2000/svg" width="100" height="100" viewBox="0 0 100 100">
    <path d="M93.19 30a9.77 9.77 0 00-16-1.84l-4.92-9.18a1 1 0 00-.59-.48 1 1 0 00-.77.08L62.68 23a9.05 9.05 0 00-1-3.37 9.21 9.21 0 00-8.41-4.82c-3.7.13-6.94 2.51-8.65 6.36a1.17 1.17 0 00-.07.25A10.08 10.08 0 0047.76 31l-8.26 4.38L8.05 52.23a1 1 0 00-.48.59 1 1 0 00.07.76l5.1 9.52a1 1 0 001 .52 1 1 0 00.85-.74 7.14 7.14 0 0111-3.91c2.39 1.7 3.46 4.61 2.95 8-2.22 4.59-6.28 5.61-9.34 4.57a1 1 0 00-1.08.3A1 1 0 0018 73l6.49 12a1 1 0 001.36.41L34.1 81a10.1 10.1 0 006.18 8 .73.73 0 00.25.08 12.68 12.68 0 002.1.18 9.57 9.57 0 008-3.86A9.16 9.16 0 0049 73l8.28-4.44 31.47-16.82a1 1 0 00.41-1.35l-3.29-6.14a9.89 9.89 0 003.31-1.07 9.78 9.78 0 004-13.23zM46.61 72a1 1 0 000 1.77 7 7 0 012.87 2.89 7.13 7.13 0 01-.48 7.6c-1.72 2.38-4.63 3.43-8 2.9-3.38-1.61-5.21-4.49-4.91-7.71a1 1 0 00-1.47-1l-8.83 4.75-5-9.32c3.44.24 7.43-1.45 9.65-6.19a1.12 1.12 0 00.08-.26c.68-4.17-.72-7.94-3.74-10.09a9.15 9.15 0 00-13.27 2.95l-3.63-6.77 29.69-15.91 4.7 8.77a1 1 0 00.88.53 1 1 0 00.88-.56 7.66 7.66 0 013.3-3.43 7.76 7.76 0 117.33 13.67 7.66 7.66 0 01-4.69.85 1 1 0 00-1 .42 1 1 0 00-.06 1l4.49 8.39zM92 36.82a7.81 7.81 0 01-7.73 5.52 1 1 0 00-.88.47 1 1 0 000 1l3.55 6.64-29.7 15.9-3.68-6.85a9.76 9.76 0 10-5.15-18.34 9.64 9.64 0 00-3.2 2.74l-3.88-7.23 8.84-4.74a1 1 0 000-1.76c-2.85-1.53-4.23-4.65-3.7-8.35 1.42-3.11 3.91-4.94 6.84-5.05a7.18 7.18 0 016.57 3.76 6.94 6.94 0 01.81 4 1 1 0 00.44.93 1 1 0 001 .05L71 20.76l5.19 9.69a1 1 0 00.85.53 1 1 0 00.88-.48A7.78 7.78 0 0192 36.82z" data-name="Layer 24" fill="#fff"/>
</svg>
