<svg xmlns="http://www.w3.org/2000/svg" width="100" height="100" viewBox="0 0 100 100">
    <path fill="#fff" d="M13 8c-3.324 0-6 2.676-6 6v40c0 3.325 2.676 6 6 6h9l-2 20 20-20h7V48.533c0-2.522 1.973-4.568 4.406-4.563L77 44.031V14c0-3.324-2.676-6-6-6H13zm40.344 38c-2.434-.01-4.407 2.041-4.407 4.563v26.781c0 2.522 1.973 4.552 4.407 4.563l18.562.062L83 92l-1.063-10.031h6.657c2.433 0 4.406-2.01 4.406-4.531V50.625c0-2.522-1.973-4.525-4.406-4.531L53.344 46z" color="#000000" enable-background="accumulate" overflow="visible"/>
</svg>
